<svg id="b" xmlns="http://www.w3.org/2000/svg" xmlns:xlink="http://www.w3.org/1999/xlink" viewBox="0 0 300 300" shape-rendering="geometricPrecision" text-rendering="geometricPrecision" project-id="4e56f334af864e64958c702e2f826936" export-id="55c5e64e23574afba2501a76fc28a608" cached="false"><polygon id="b-s-polygon1" points="0,-43.6145 37.771265,21.807249 -37.771265,21.807249 0,-43.6145" transform="matrix(.864426-.502761 0.502761 0.864426 175.704941 243.75419)" stroke-width="0"/><polygon id="b-s-polygon2" points="0,-42.312731 36.6439,21.156366 -36.6439,21.156366 0,-42.312731" transform="matrix(-.002837 1.062511-.999996-.00267 97.270057 81.229313)" stroke-width="0"/><polygon id="b-s-polygon3" points="0,-42.312731 36.6439,21.156366 -36.6439,21.156366 0,-42.312731" transform="matrix(-.002837 1.062511-.999996-.00267 97.815327 188.991047)" stroke-width="0"/><polygon id="b-s-polygon4" points="0,-42.312731 36.6439,21.156366 -36.6439,21.156366 0,-42.312731" transform="matrix(-.004603-1.062505 0.999991-.004332 119.244011 242.921641)" stroke-width="0"/><polygon id="b-s-polygon5" points="0,-42.312731 36.6439,21.156366 -36.6439,21.156366 0,-42.312731" transform="matrix(-.004603-1.062505 0.999991-.004332 197.99438 189.025981)" stroke-width="0"/><polygon id="b-s-polygon6" points="0,-42.312731 36.6439,21.156366 -36.6439,21.156366 0,-42.312731" transform="matrix(-.004603-1.062505 0.999991-.004332 118.153834 137.408064)" stroke-width="0"/></svg>
